# xmcd
#
# Track frame offsets: 
#        150
#        16161
#        33880
#        52845
#        89325
#        108439
#        125657
#        154747
#        175209
#        187537
#        208203
#        230585
#        250287
#
# Disc length: 3618 seconds
#
# Revision: 0
# Processed by: cddbd v1.5.2PL0 Copyright (c) Steve Scherf et al.
# Submitted via: ExactAudioCopy v0.99pb5
#
DISCID=a00e200d
DTITLE=The Hoochie Coochie Men Feat. Jon Lord -  Danger: White Men Dan
DTITLE=cing 
DYEAR=2007
DGENRE=Blues
TTITLE0=The Blues Just Got Sadder
TTITLE1=Gotta Find Me Some Fire 
TTITLE2=Twisted System
TTITLE3=Over and Over
TTITLE4=Let It Go
TTITLE5=Heart Of Stone
TTITLE6=If This Ain't The Blues
TTITLE7=Danger White Men Dancing
TTITLE8=Dead Presidents
TTITLE9=Hoochie Coochie Man
TTITLE10=Bottle O' Wine
TTITLE11=Everybody Wants To Go To Heaven
TTITLE12=Tell Your Story Walkin'
EXTD=
EXTT0=
EXTT1=
EXTT2=
EXTT3=
EXTT4=
EXTT5=
EXTT6=
EXTT7=
EXTT8=
EXTT9=
EXTT10=
EXTT11=
EXTT12=
PLAYORDER=
